<?xml version="1.0" encoding="utf-8"?>
<!-- Generator: Adobe Illustrator 26.0.2, SVG Export Plug-In . SVG Version: 6.00 Build 0)  -->
<svg version="1.1" id="Layer_1" xmlns="http://www.w3.org/2000/svg" xmlns:xlink="http://www.w3.org/1999/xlink" x="0px" y="0px"
	 viewBox="0 0 1000 600" style="enable-background:new 0 0 1000 600;" xml:space="preserve">
<style type="text/css">
	.st0{fill:#1D71B8;}
	.st1{fill:url(#SVGID_1_);}
	.st2{fill:url(#SVGID_00000078045030682206116250000017583832742658827432_);}
	.st3{fill:url(#SVGID_00000003102674954898285940000011740002552733097892_);}
	.st4{fill:url(#SVGID_00000103979480176181924260000004660003045608171939_);}
	.st5{fill:url(#SVGID_00000119079185348517909870000003665693092173467817_);}
</style>
<g>
	<g>
		<path class="st0" d="M415.9,363v4.7h-9.5c-1.7,0-3,0.4-4,1.2c-1,0.8-1.6,1.7-1.9,2.7c-0.3,1-0.5,1.9-0.6,2.7
			c-0.1,0.8-0.2,1.7-0.2,2.5v0.5v0.4c0,0.4,0,0.7,0,1.2c0,0.4,0.1,0.9,0.2,1.5c0.1,0.6,0.2,1.2,0.5,1.9c0.3,0.7,0.6,1.3,1.1,1.9
			c0.6,0.7,1.3,1.1,2.1,1.2s1.7,0.2,2.9,0.2h9.5v4.8h-9.7c-1.8,0-3.4-0.2-4.7-0.5c-1.3-0.3-2.6-1-3.9-1.9c-1.6-1.3-2.7-2.9-3.3-4.8
			s-1-3.9-1-6.1v-1.6c0-1,0.1-2,0.3-2.9c0.2-0.9,0.5-1.8,0.8-2.7c0.3-0.8,0.7-1.6,1.1-2.2c0.4-0.6,1-1.4,1.8-2.1
			c0.8-0.8,1.7-1.4,2.9-1.7c1.1-0.4,2.2-0.6,3.2-0.7c1-0.1,2-0.2,3-0.2H415.9z"/>
		<path class="st0" d="M419.2,370.7c0.6-2,1.4-3.5,2.4-4.5c1-1,1.9-1.7,2.8-2.1c0.8-0.4,1.7-0.8,2.7-1c0.9-0.2,1.8-0.4,2.5-0.5
			c0.7-0.1,1.6-0.1,2.6-0.1c1.8,0,3.3,0.1,4.3,0.4c1.1,0.3,1.8,0.5,2.2,0.6c0.4,0.1,1,0.4,1.7,0.8c0.7,0.4,1.4,0.9,1.9,1.5
			c1.3,1.3,2.2,2.9,2.8,4.9c0.6,2,0.9,4.1,0.9,6.1c0,2.1-0.3,4.1-0.9,6.2c-0.6,2.1-1.6,3.7-2.9,5c-1.3,1.3-2.9,2.1-4.7,2.5
			c-1.8,0.4-3.6,0.7-5.3,0.7c-1.7,0-3.4-0.2-4.9-0.6c-0.5-0.1-1-0.2-1.5-0.4c-0.4-0.2-1-0.4-1.7-0.8c-0.7-0.4-1.3-0.8-2-1.5
			c-0.7-0.6-1.3-1.4-1.7-2.2c-0.5-0.8-0.9-2-1.3-3.5c-0.4-1.5-0.6-3.3-0.6-5.5C418.4,374.6,418.7,372.6,419.2,370.7z M425.1,372.6
			c-0.3,1.2-0.5,2.6-0.5,4.1c0,1.5,0.2,3.2,0.7,5.1s1.5,3.2,3,3.7s2.7,0.8,3.8,0.8c1,0,2-0.1,2.9-0.4c2.2-0.8,3.6-2.5,4.1-5
			c0.4-1.3,0.5-2.7,0.5-4.1c0-1.5-0.1-2.7-0.4-3.6c-0.2-0.9-0.4-1.5-0.5-1.8c-0.1-0.3-0.3-0.6-0.6-1.2c-0.3-0.5-0.7-1-1.2-1.5
			c-0.5-0.5-1.1-0.8-1.7-1c-0.6-0.2-1.1-0.3-1.6-0.4c-0.5-0.1-1-0.1-1.5-0.1c-0.9,0-1.9,0.1-2.8,0.4
			C427.4,368.4,426,370,425.1,372.6z"/>
		<path class="st0" d="M455.7,390.5h-5.9V363h8.5l7,21.1l7-21.1h8.5v27.5h-5.7l0.5-21.4l-7,21.4h-6.2l-7.2-21.6L455.7,390.5z"/>
		<path class="st0" d="M492.3,390.5h-5.8V363H499c1.9,0,3.5,0.1,4.8,0.3c1.3,0.2,2.4,0.6,3.3,1.2c1.3,0.7,2.2,1.8,2.9,3.2
			c0.6,1.4,1,2.9,1,4.5c0,1.4-0.2,2.7-0.7,4c-0.5,1.3-1.2,2.2-2.1,2.9c-0.9,0.7-1.8,1.2-2.5,1.3c-0.7,0.2-1.3,0.3-1.7,0.4
			c-0.4,0.1-0.9,0.1-1.3,0.1h-3.3h-7V390.5z M499,367.9h-6.7v8.1h7c3.5,0,5.2-1.3,5.2-4c0-1.6-0.5-2.7-1.5-3.2
			C502.1,368.2,500.7,367.9,499,367.9z"/>
		<path class="st0" d="M533.2,386v4.6h-7.4h-0.5h-0.4c-1.1,0-2-0.1-2.9-0.2c-0.8-0.1-1.7-0.4-2.7-0.8s-1.8-1-2.6-1.8
			c-0.7-0.8-1.3-1.6-1.6-2.5c-0.3-0.9-0.6-1.8-0.7-2.8c-0.1-1-0.2-2-0.2-3.1V363h5.7v15.1c0,0.7,0,1.2,0,1.7c0,0.5,0,1.1,0.1,1.9
			s0.4,1.6,0.8,2.2c0.4,0.7,1,1.2,1.9,1.5c0.9,0.3,2,0.5,3.4,0.5H533.2z"/>
		<path class="st0" d="M557,363v4.8h-9.5c-2.1,0-3.7,0.5-4.8,1.6c-1.1,1.1-1.7,2.7-1.7,4.8h16v4.8h-16c0,2.3,0.4,3.9,1.3,4.8
			c0.8,0.9,1.6,1.5,2.4,1.6c0.7,0.2,1.7,0.2,2.9,0.2h9.5v4.8h-9.7c-1.8,0-3.4-0.2-4.7-0.5c-1.3-0.3-2.6-1-3.9-1.9
			c-1.6-1.3-2.7-2.9-3.3-4.8c-0.7-1.9-1-3.9-1-6.1l0.1-1.6c0-1,0.1-2,0.3-2.9c0.2-0.9,0.5-1.8,0.8-2.7s0.7-1.6,1.1-2.2
			c0.4-0.6,1-1.4,1.8-2.1c0.8-0.8,1.7-1.4,2.9-1.7c1.1-0.4,2.2-0.6,3.2-0.7c1-0.1,2-0.2,3-0.2H557z"/>
		<path class="st0" d="M574.1,390.5h-6v-22.7h-8.8V363H583v4.8h-8.9V390.5z"/>
		<path class="st0" d="M606.7,363v4.8h-9.5c-2.1,0-3.7,0.5-4.8,1.6c-1.1,1.1-1.7,2.7-1.7,4.8h16v4.8h-16c0,2.3,0.4,3.9,1.3,4.8
			c0.8,0.9,1.6,1.5,2.4,1.6c0.7,0.2,1.7,0.2,2.9,0.2h9.5v4.8h-9.7c-1.8,0-3.4-0.2-4.7-0.5c-1.3-0.3-2.6-1-3.9-1.9
			c-1.6-1.3-2.7-2.9-3.3-4.8c-0.7-1.9-1-3.9-1-6.1l0.1-1.6c0-1,0.1-2,0.3-2.9s0.5-1.8,0.8-2.7c0.3-0.8,0.7-1.6,1.1-2.2
			c0.4-0.6,1-1.4,1.8-2.1c0.8-0.8,1.7-1.4,2.9-1.7c1.1-0.4,2.2-0.6,3.2-0.7c1-0.1,2-0.2,3-0.2H606.7z"/>
	</g>
	<g>
		<path class="st0" d="M327.7,426.3H321l-8.7-26.2h5.8l6,20.1l5.1-20.1h6.5l5.9,20.1l5.6-20.1h5.6l-8,26.2h-6.8l-5.5-19.5
			L327.7,426.3z"/>
		<path class="st0" d="M355.5,400.1h5.8v26.2h-5.8V400.1z"/>
		<path class="st0" d="M372.4,426.3h-5.6v-26.2h7l10.7,18.9l-0.2-18.9h5.5v26.2h-6.3l-11.2-19.8L372.4,426.3z"/>
		<path class="st0" d="M407.1,426.3h-12.1v-26.2H407c2.7,0,4.9,0.4,6.7,1.3c1.7,0.9,3,2,3.7,3.4c0.7,1.4,1.2,2.6,1.5,3.7
			c0.3,1.1,0.4,2.3,0.4,3.6v1.6c0,4.6-1,7.7-2.9,9.3c-1.9,1.6-3.5,2.5-4.8,2.8C410.4,426.1,408.9,426.3,407.1,426.3z M406.9,404.6
			h-6.4v17.1h6.4c1.1,0,2-0.1,2.7-0.2c0.7-0.2,1.4-0.6,2-1.2c0.7-0.8,1.2-1.8,1.4-3c0.2-1.2,0.3-2.6,0.3-4.1c0-1.5-0.1-2.8-0.3-4
			c-0.2-1.2-0.6-2.2-1.3-2.9c-0.6-0.7-1.2-1.2-1.8-1.3c-0.5-0.1-1.1-0.2-1.5-0.3C408,404.7,407.5,404.6,406.9,404.6z"/>
		<path class="st0" d="M422.2,407.4c0.6-1.9,1.3-3.3,2.3-4.3c0.9-0.9,1.8-1.6,2.6-2c0.8-0.4,1.6-0.8,2.5-1s1.7-0.4,2.4-0.5
			c0.7-0.1,1.5-0.1,2.4-0.1c1.7,0,3.1,0.1,4.1,0.4c1,0.3,1.7,0.4,2.1,0.6c0.4,0.1,0.9,0.4,1.6,0.7c0.7,0.4,1.3,0.9,1.8,1.4
			c1.2,1.2,2.1,2.7,2.7,4.6c0.6,1.9,0.8,3.9,0.8,5.8c0,2-0.3,3.9-0.8,5.9c-0.6,2-1.5,3.5-2.8,4.7c-1.3,1.2-2.8,2-4.5,2.4
			c-1.7,0.4-3.4,0.6-5,0.6c-1.6,0-3.2-0.2-4.7-0.5c-0.5-0.1-1-0.2-1.4-0.4c-0.4-0.2-1-0.4-1.6-0.7c-0.6-0.3-1.3-0.8-1.9-1.4
			s-1.2-1.3-1.6-2.1c-0.5-0.8-0.9-1.9-1.3-3.3s-0.6-3.1-0.6-5.2C421.4,411.1,421.7,409.2,422.2,407.4z M427.8,409.3
			c-0.3,1.2-0.4,2.4-0.4,3.9c0,1.4,0.2,3,0.7,4.9c0.5,1.9,1.4,3.1,2.8,3.6c1.4,0.5,2.6,0.7,3.6,0.7c0.9,0,1.9-0.1,2.7-0.4
			c2.1-0.8,3.4-2.3,3.9-4.8c0.3-1.2,0.5-2.5,0.5-3.9c0-1.4-0.1-2.6-0.3-3.4c-0.2-0.9-0.4-1.4-0.5-1.7c-0.1-0.2-0.3-0.6-0.5-1.1
			c-0.3-0.5-0.7-1-1.2-1.4c-0.5-0.5-1.1-0.8-1.6-1c-0.6-0.2-1.1-0.3-1.5-0.4c-0.5-0.1-0.9-0.1-1.4-0.1c-0.9,0-1.8,0.1-2.7,0.4
			C430,405.2,428.6,406.8,427.8,409.3z"/>
		<path class="st0" d="M463.8,426.3h-6.7l-8.7-26.2h5.8l6,20.1l5.1-20.1h6.5l5.9,20.1l5.6-20.1h5.6l-8,26.2h-6.8l-5.5-19.5
			L463.8,426.3z"/>
		<path class="st0" d="M522,400.1v4.5h-9c-1.6,0-2.9,0.4-3.8,1.1c-0.9,0.8-1.6,1.6-1.8,2.5c-0.3,0.9-0.5,1.8-0.6,2.6
			c-0.1,0.8-0.2,1.6-0.2,2.4v0.5v0.4c0,0.3,0,0.7,0,1.1c0,0.4,0.1,0.9,0.1,1.5c0.1,0.6,0.2,1.2,0.5,1.8c0.3,0.7,0.6,1.3,1.1,1.8
			c0.6,0.6,1.3,1,2,1.2c0.7,0.2,1.6,0.2,2.7,0.2h9v4.6h-9.2c-1.7,0-3.2-0.2-4.4-0.5c-1.2-0.3-2.5-0.9-3.7-1.8
			c-1.5-1.3-2.5-2.8-3.1-4.6c-0.6-1.8-0.9-3.7-0.9-5.8v-1.6c0-0.9,0.1-1.9,0.3-2.8s0.4-1.7,0.7-2.5c0.3-0.8,0.6-1.5,1-2.1
			c0.4-0.6,1-1.3,1.7-2c0.8-0.8,1.7-1.3,2.7-1.7c1.1-0.4,2.1-0.6,3-0.7c0.9-0.1,1.9-0.2,2.8-0.2H522z"/>
		<path class="st0" d="M543.5,421.9v4.3h-7h-0.5h-0.4c-1,0-1.9,0-2.7-0.1c-0.8-0.1-1.6-0.4-2.6-0.8c-0.9-0.4-1.7-1-2.4-1.7
			c-0.7-0.7-1.2-1.5-1.5-2.3c-0.3-0.8-0.6-1.7-0.7-2.7c-0.1-0.9-0.2-1.9-0.2-3v-15.6h5.5v14.4c0,0.6,0,1.2,0,1.6
			c0,0.5,0,1.1,0.1,1.8s0.3,1.5,0.7,2.1c0.4,0.6,1,1.1,1.8,1.4c0.8,0.3,1.9,0.5,3.3,0.5H543.5z"/>
		<path class="st0" d="M566.2,400.1v4.6h-9c-2,0-3.5,0.5-4.6,1.5c-1.1,1-1.6,2.6-1.6,4.6h15.2v4.6H551c0,2.2,0.4,3.7,1.2,4.6
			c0.8,0.9,1.5,1.4,2.2,1.6c0.7,0.2,1.6,0.2,2.8,0.2h9v4.6H557c-1.7,0-3.2-0.2-4.5-0.5c-1.2-0.3-2.5-0.9-3.7-1.8
			c-1.5-1.3-2.5-2.8-3.1-4.6c-0.6-1.8-0.9-3.7-0.9-5.8l0.1-1.6c0-0.9,0.1-1.9,0.3-2.8c0.2-0.9,0.4-1.7,0.7-2.5
			c0.3-0.8,0.6-1.5,1-2.1s1-1.3,1.7-2c0.8-0.8,1.7-1.3,2.7-1.7c1.1-0.4,2.1-0.6,3-0.7c0.9-0.1,1.9-0.2,2.8-0.2H566.2z"/>
		<path class="st0" d="M573.4,426.3h-5.8l11-26.2h5.8l11.2,26.2h-6.1L587,420h-11.4L573.4,426.3z M577.4,415.4h7.8l-4-10
			L577.4,415.4z"/>
		<path class="st0" d="M603,426.3h-5.6v-26.2h7l10.7,18.9l-0.2-18.9h5.5v26.2H614l-11.2-19.8L603,426.3z"/>
		<path class="st0" d="M625.7,400.1h5.8v26.2h-5.8V400.1z"/>
		<path class="st0" d="M642.6,426.3H637v-26.2h7l10.7,18.9l-0.2-18.9h5.5v26.2h-6.3l-11.2-19.8L642.6,426.3z"/>
		<path class="st0" d="M682.1,421.5v-6.1h-7.3v-4.6h12.9v15.5h-11.8h-0.4c-0.6,0-1.2,0-1.7,0c-0.5-0.1-0.9-0.1-1.2-0.2
			c-0.3,0-0.7-0.1-1.1-0.2c-0.4-0.1-1-0.3-1.7-0.6c-0.7-0.3-1.6-0.9-2.7-1.8c-1.1-0.9-2-2.3-2.6-4.1c-0.6-1.8-0.9-3.7-0.9-5.8v-1.6
			c0-1.3,0.1-2.5,0.4-3.6c0.3-1.1,0.7-2.1,1.2-3c0.5-0.9,1.1-1.7,1.7-2.4c0.7-0.7,1.7-1.4,3-2c1.3-0.7,3.3-1,6-1h11.8v4.6h-11.8
			c-1.6,0-2.9,0.4-3.8,1.1c-0.9,0.7-1.5,1.7-1.9,3c-0.4,1.3-0.5,2.7-0.5,4.2v0.4c0,2.5,0.4,4.5,1.3,6c0.9,1.4,2.5,2.1,4.9,2.1H682.1
			z"/>
	</g>
	<g>
		<linearGradient id="SVGID_1_" gradientUnits="userSpaceOnUse" x1="489.7356" y1="158.4207" x2="409.9464" y2="305.0604">
			<stop  offset="0" style="stop-color:#64CBEE"/>
			<stop  offset="1" style="stop-color:#1D71B8"/>
		</linearGradient>
		<path class="st1" d="M497.4,234.4l-8.4-51.6l-51.5-9.5c-7.3-1.3-13.8,4.9-12.8,12.2l9.7,69.9l48.8-3.2
			C492.2,251.7,498.8,243.4,497.4,234.4z"/>
		
			<linearGradient id="SVGID_00000013907053860454350420000008780317924312409257_" gradientUnits="userSpaceOnUse" x1="531.7529" y1="181.2831" x2="451.9637" y2="327.9228">
			<stop  offset="0" style="stop-color:#64CBEE"/>
			<stop  offset="1" style="stop-color:#1D71B8"/>
		</linearGradient>
		<path style="fill:url(#SVGID_00000013907053860454350420000008780317924312409257_);" d="M524,249.3c5.5-6.4,9.6-13.7,11-22
			c2.9-17-0.5-28.9-5.6-37.1l-30.3-5.6l7.8,48.4C508.4,241.8,515.5,248.4,524,249.3z"/>
		
			<linearGradient id="SVGID_00000124152688288735633590000002212807030103087293_" gradientUnits="userSpaceOnUse" x1="549.0404" y1="190.6895" x2="469.2512" y2="337.3292">
			<stop  offset="0" style="stop-color:#64CBEE"/>
			<stop  offset="1" style="stop-color:#1D71B8"/>
		</linearGradient>
		<path style="fill:url(#SVGID_00000124152688288735633590000002212807030103087293_);" d="M544.8,202.5c0.5,1.5,1,3.1,1.5,4.7
			c0.1,0.5,0.3,1.1,0.4,1.6c0,0,0,0,0,0c0.1,0.3,0.2,0.6,0.2,0.9c1.4,5.9,2.4,12.7,2.7,20.7c0.2,6.1-0.1,12-0.8,17.6l16.2-1.1
			l-8.1-44.5c-0.8-4.5-4.3-8-8.8-8.8l-3.8-0.7c-10.3-16.9-33.2-18.6-33.2-18.6S535.3,176.9,544.8,202.5z"/>
		
			<linearGradient id="SVGID_00000009557780867664370840000012679749858578994877_" gradientUnits="userSpaceOnUse" x1="597.0584" y1="216.817" x2="517.2692" y2="363.4566">
			<stop  offset="0" style="stop-color:#64CBEE"/>
			<stop  offset="1" style="stop-color:#1D71B8"/>
		</linearGradient>
		<path style="fill:url(#SVGID_00000009557780867664370840000012679749858578994877_);" d="M575.2,302.3l-8.4-45.7l-19.5,1.3
			c-5.3,25.3-18.2,44.3-27.4,55.2l2.3,14l45.1-12.3C572.8,313.3,576.2,307.9,575.2,302.3z"/>
		
			<linearGradient id="SVGID_00000090989991871832583190000006930991204038327742_" gradientUnits="userSpaceOnUse" x1="536.1195" y1="183.659" x2="456.3303" y2="330.2987">
			<stop  offset="0" style="stop-color:#64CBEE"/>
			<stop  offset="1" style="stop-color:#1D71B8"/>
		</linearGradient>
		<path style="fill:url(#SVGID_00000090989991871832583190000006930991204038327742_);" d="M498,313.3L484.6,302
			c9.1-3.8,16.4-9.7,21.4-14.4l0,0c0.3-0.3,0.6-0.5,0.9-0.8c4-4,6.3-7,6.3-7s-0.3,0.3-0.8,0.7c-10.9,9.1-25.1,15.1-32.3,17.8
			l-17.2-14.4c8.5-2.6,23-7.6,36.8-15.5c-3.9-4.3-9.6-6.8-15.7-6.4l-48.3,3.2l9.7,70c0.3,2,1.1,3.8,2.2,5.2l8.3-9.9l3.1,2.6l3.1,2.6
			l-7.4,8.9c1.4,0.2,3,0.2,4.5-0.3l36.5-9.9l-6.8-5.6l-17.3-1.9l-5.8,6.9l-4.3-3.6l-4.3-3.6l5.8-6.9l-5.1-16.7l-13.9-11.6l3.6-4.3
			l54.7,45.5l2.1-0.6l-58.1-48.4l2.3-2.8l60.1,50l4.3-1.2l-0.7-4.2l-10.6-9.2c2.3-2.2,5-4.8,7.8-7.9l0,0c2.5-2.7,5.3-6.1,8.2-10l0,0
			c6.3-8.6,12.5-19.2,16.7-31.9C534.3,266.4,520.7,297,498,313.3z"/>
	</g>
</g>
</svg>
