<?xml version="1.0" encoding="utf-8"?>
<!-- Generator: Adobe Illustrator 24.1.2, SVG Export Plug-In . SVG Version: 6.00 Build 0)  -->
<svg version="1.1" id="Layer_1" xmlns="http://www.w3.org/2000/svg" xmlns:xlink="http://www.w3.org/1999/xlink" x="0px" y="0px"
	 viewBox="0 0 861.3 183.1" style="enable-background:new 0 0 861.3 183.1;" xml:space="preserve">
<style type="text/css">
	.st0{fill:#1D71B8;}
	.st1{fill:url(#SVGID_1_);}
	.st2{fill:url(#SVGID_2_);}
	.st3{fill:url(#SVGID_3_);}
	.st4{fill:url(#SVGID_4_);}
	.st5{fill:url(#SVGID_5_);}
</style>
<g>
	<g>
		<path class="st0" d="M381.1,36.9v8.2h-16.5c-2.9,0-5.3,0.7-7,2.1c-1.7,1.4-2.8,3-3.3,4.7c-0.5,1.7-0.8,3.3-1.1,4.7
			c-0.2,1.4-0.3,2.9-0.3,4.3v0.9v0.7c0,0.6,0,1.3,0.1,2c0,0.7,0.1,1.6,0.3,2.7c0.1,1,0.4,2.2,0.9,3.4c0.5,1.2,1.1,2.3,2,3.3
			c1.1,1.2,2.3,1.9,3.6,2.2s2.9,0.4,5,0.4h16.5v8.3h-16.8c-3.2,0-5.9-0.3-8.1-0.8c-2.2-0.6-4.5-1.7-6.7-3.4
			c-2.7-2.3-4.6-5.1-5.7-8.3c-1.1-3.2-1.7-6.7-1.7-10.5v-2.9c0-1.7,0.2-3.4,0.5-5.1c0.4-1.6,0.8-3.2,1.3-4.7
			c0.5-1.5,1.2-2.8,1.9-3.9c0.7-1.1,1.8-2.4,3.1-3.7c1.4-1.4,3-2.4,5-3c2-0.6,3.8-1.1,5.5-1.3c1.7-0.2,3.4-0.3,5.2-0.3H381.1z"/>
		<path class="st0" d="M387,50.3c1-3.5,2.4-6.1,4.1-7.8c1.7-1.7,3.3-2.9,4.8-3.7c1.5-0.8,3-1.4,4.6-1.8c1.6-0.4,3.1-0.7,4.4-0.8
			c1.3-0.1,2.8-0.2,4.5-0.2c3.2,0,5.7,0.2,7.6,0.7c1.8,0.5,3.1,0.8,3.8,1s1.7,0.7,2.9,1.4c1.3,0.7,2.4,1.6,3.4,2.6
			c2.3,2.2,3.9,5,4.9,8.5c1,3.5,1.5,7,1.5,10.7c0,3.6-0.5,7.2-1.5,10.7c-1,3.6-2.7,6.4-5,8.6c-2.3,2.2-5.1,3.6-8.2,4.4
			s-6.2,1.1-9.2,1.1c-3,0-5.8-0.3-8.6-1c-0.9-0.2-1.8-0.4-2.6-0.7c-0.8-0.3-1.7-0.7-2.9-1.4c-1.2-0.6-2.3-1.5-3.5-2.6
			c-1.2-1.1-2.2-2.4-3-3.8c-0.8-1.5-1.6-3.5-2.3-6.1c-0.7-2.6-1.1-5.7-1.1-9.5C385.5,57,386,53.6,387,50.3z M397.2,53.7
			c-0.5,2.1-0.8,4.5-0.8,7c0,2.5,0.4,5.5,1.3,8.9c0.9,3.4,2.6,5.6,5.2,6.5c2.6,0.9,4.7,1.4,6.5,1.4c1.7,0,3.4-0.2,5-0.7
			c3.8-1.4,6.2-4.3,7.1-8.7c0.6-2.3,0.9-4.6,0.9-7.2c0-2.6-0.2-4.7-0.6-6.3c-0.4-1.6-0.7-2.6-0.9-3.1c-0.2-0.4-0.5-1.1-1-2
			c-0.5-0.9-1.2-1.8-2.2-2.6c-0.9-0.8-1.9-1.4-3-1.8c-1-0.3-2-0.6-2.8-0.7c-0.8-0.1-1.7-0.2-2.6-0.2c-1.6,0-3.3,0.2-4.9,0.7
			C401.1,46.3,398.7,49.2,397.2,53.7z"/>
		<path class="st0" d="M450.4,84.8h-10.3V36.9H455l12.1,36.7l12.2-36.7H494v47.9H484l0.8-37.2l-12.2,37.2h-10.7l-12.6-37.5
			L450.4,84.8z"/>
		<path class="st0" d="M513.9,84.8h-10.1V36.9h21.8c3.3,0,6.1,0.1,8.3,0.4c2.2,0.3,4.1,1,5.8,2c2.2,1.2,3.9,3.1,5,5.5
			c1.1,2.4,1.7,5,1.7,7.8c0,2.5-0.4,4.8-1.3,7c-0.9,2.2-2.1,3.9-3.7,5.1c-1.6,1.2-3.1,2-4.3,2.3c-1.3,0.3-2.3,0.6-3,0.7
			c-0.8,0.2-1.5,0.2-2.3,0.2H526h-12.2V84.8z M525.5,45.5h-11.6v14H526c6.1,0,9.1-2.3,9.1-7c0-2.8-0.9-4.7-2.6-5.6
			C530.9,46,528.5,45.5,525.5,45.5z"/>
		<path class="st0" d="M585,76.8v7.9h-12.8h-0.9h-0.7c-1.9,0-3.5-0.1-5-0.3c-1.4-0.2-3-0.6-4.7-1.4c-1.7-0.8-3.2-1.8-4.5-3.1
			c-1.3-1.3-2.2-2.8-2.8-4.3c-0.6-1.5-1-3.2-1.2-4.9c-0.2-1.7-0.3-3.5-0.3-5.4V36.9h10v26.3c0,1.2,0,2.1,0,3c0,0.8,0.1,1.9,0.2,3.4
			c0.2,1.4,0.6,2.7,1.4,3.9c0.7,1.2,1.8,2,3.3,2.6c1.6,0.6,3.6,0.9,6,0.9H585z"/>
		<path class="st0" d="M626.4,36.9v8.3h-16.5c-3.6,0-6.4,0.9-8.4,2.8c-2,1.9-3,4.7-3,8.4h27.8v8.3h-27.8c0,4,0.7,6.8,2.2,8.4
			s2.8,2.6,4.1,2.9c1.3,0.3,2.9,0.4,5,0.4h16.5v8.3h-16.9c-3.2,0-5.9-0.3-8.2-0.8c-2.2-0.6-4.5-1.7-6.8-3.4
			c-2.7-2.3-4.6-5.1-5.8-8.3c-1.1-3.2-1.7-6.7-1.7-10.5l0.1-2.9c0-1.7,0.2-3.4,0.5-5.1c0.4-1.6,0.8-3.2,1.3-4.7
			c0.5-1.5,1.2-2.8,1.9-3.9c0.7-1.1,1.8-2.4,3.1-3.7c1.4-1.4,3-2.4,5-3c2-0.6,3.8-1.1,5.5-1.3c1.7-0.2,3.4-0.3,5.2-0.3H626.4z"/>
		<path class="st0" d="M656.1,84.8h-10.5V45.3h-15.3V37h41.2v8.3h-15.4V84.8z"/>
		<path class="st0" d="M712.6,36.9v8.3h-16.5c-3.6,0-6.4,0.9-8.4,2.8s-3,4.7-3,8.4h27.8v8.3h-27.8c0,4,0.7,6.8,2.2,8.4
			s2.8,2.6,4.1,2.9c1.3,0.3,2.9,0.4,5,0.4h16.5v8.3h-16.9c-3.2,0-5.9-0.3-8.2-0.8c-2.2-0.6-4.5-1.7-6.8-3.4
			c-2.7-2.3-4.6-5.1-5.8-8.3c-1.1-3.2-1.7-6.7-1.7-10.5l0.1-2.9c0-1.7,0.2-3.4,0.5-5.1c0.4-1.6,0.8-3.2,1.3-4.7
			c0.5-1.5,1.2-2.8,1.9-3.9c0.7-1.1,1.8-2.4,3.1-3.7c1.4-1.4,3-2.4,5-3c2-0.6,3.8-1.1,5.5-1.3c1.7-0.2,3.4-0.3,5.2-0.3H712.6z"/>
	</g>
	<g>
		<path class="st0" d="M228,146.9h-11.6l-15.1-45.5h10.1l10.5,35l8.9-35h11.3l10.3,35l9.7-35h9.7l-13.9,45.5h-11.8l-9.6-33.9
			L228,146.9z"/>
		<path class="st0" d="M276.3,101.4h10v45.5h-10V101.4z"/>
		<path class="st0" d="M305.6,146.9h-9.8v-45.5H308l18.5,32.8l-0.4-32.8h9.6v45.5h-11l-19.5-34.4L305.6,146.9z"/>
		<path class="st0" d="M365.9,146.9H345v-45.5h20.8c4.7,0,8.6,0.8,11.6,2.2c3,1.5,5.1,3.4,6.4,5.9c1.3,2.4,2.2,4.6,2.7,6.5
			c0.5,1.9,0.8,4,0.8,6.3v2.8c0,8-1.7,13.3-5,16.1c-3.3,2.8-6.1,4.4-8.3,4.9C371.6,146.6,369,146.9,365.9,146.9z M365.6,109.3h-11.1
			V139h11.1c1.9,0,3.5-0.1,4.7-0.4c1.2-0.3,2.4-1,3.4-2.1c1.3-1.4,2.1-3.2,2.4-5.3c0.4-2.1,0.5-4.4,0.5-7.1c0-2.5-0.2-4.9-0.5-7
			c-0.4-2.1-1.1-3.8-2.2-5.1c-1.1-1.3-2.1-2-3.1-2.2c-0.9-0.2-1.8-0.4-2.7-0.5C367.4,109.4,366.5,109.3,365.6,109.3z"/>
		<path class="st0" d="M392.2,114.1c1-3.3,2.3-5.8,3.9-7.4c1.6-1.6,3.2-2.8,4.6-3.5c1.4-0.7,2.9-1.3,4.4-1.7s2.9-0.7,4.1-0.8
			c1.2-0.1,2.6-0.2,4.2-0.2c3,0,5.4,0.2,7.2,0.7c1.8,0.4,3,0.8,3.6,1c0.7,0.2,1.6,0.6,2.8,1.3c1.2,0.7,2.3,1.5,3.2,2.5
			c2.2,2.1,3.7,4.8,4.7,8.1c1,3.3,1.5,6.7,1.5,10.2c0,3.4-0.5,6.8-1.5,10.2c-1,3.4-2.6,6.1-4.8,8.2c-2.2,2.1-4.8,3.5-7.8,4.2
			c-3,0.7-5.9,1.1-8.7,1.1c-2.8,0-5.5-0.3-8.2-0.9c-0.9-0.2-1.7-0.4-2.4-0.7c-0.7-0.3-1.7-0.7-2.8-1.3c-1.1-0.6-2.2-1.4-3.3-2.4
			c-1.1-1-2.1-2.2-2.8-3.6c-0.8-1.4-1.5-3.3-2.2-5.8s-1-5.5-1-9.1C390.8,120.6,391.3,117.2,392.2,114.1z M401.9,117.4
			c-0.5,2-0.8,4.3-0.8,6.7c0,2.4,0.4,5.2,1.2,8.5c0.8,3.3,2.5,5.3,4.9,6.2c2.4,0.9,4.5,1.3,6.2,1.3c1.6,0,3.2-0.2,4.7-0.7
			c3.6-1.3,5.9-4.1,6.8-8.3c0.6-2.1,0.9-4.4,0.9-6.8c0-2.4-0.2-4.4-0.6-6c-0.4-1.5-0.7-2.5-0.8-2.9c-0.1-0.4-0.5-1.1-0.9-1.9
			c-0.5-0.9-1.2-1.7-2.1-2.5c-0.9-0.8-1.8-1.4-2.8-1.7c-1-0.3-1.9-0.5-2.7-0.7c-0.8-0.1-1.6-0.2-2.5-0.2c-1.6,0-3.1,0.2-4.6,0.7
			C405.6,110.3,403.3,113.1,401.9,117.4z"/>
		<path class="st0" d="M464.3,146.9h-11.6l-15.1-45.5h10.1l10.5,35l8.9-35h11.3l10.3,35l9.7-35h9.7l-13.9,45.5h-11.8l-9.6-33.9
			L464.3,146.9z"/>
		<path class="st0" d="M565.6,101.4v7.8h-15.7c-2.8,0-5,0.7-6.6,2c-1.6,1.3-2.7,2.8-3.2,4.4c-0.5,1.6-0.8,3.1-1,4.5
			c-0.2,1.4-0.3,2.7-0.3,4.1v0.8v0.7c0,0.6,0,1.2,0.1,1.9c0,0.7,0.1,1.5,0.3,2.5c0.1,1,0.4,2.1,0.9,3.2c0.4,1.1,1.1,2.2,1.9,3.2
			c1.1,1.1,2.2,1.8,3.4,2.1c1.2,0.3,2.8,0.4,4.7,0.4h15.7v7.9h-16c-3,0-5.6-0.3-7.7-0.8c-2.1-0.5-4.3-1.6-6.4-3.2
			c-2.6-2.2-4.4-4.8-5.5-7.9c-1.1-3.1-1.6-6.4-1.6-10v-2.7c0-1.6,0.2-3.3,0.5-4.8c0.3-1.6,0.8-3,1.3-4.4c0.5-1.4,1.1-2.6,1.8-3.7
			c0.7-1.1,1.7-2.2,3-3.5c1.3-1.3,2.9-2.3,4.7-2.9c1.9-0.6,3.6-1,5.2-1.2c1.6-0.2,3.3-0.3,4.9-0.3H565.6z"/>
		<path class="st0" d="M602.9,139.4v7.5h-12.2H590h-0.7c-1.8,0-3.3-0.1-4.7-0.3c-1.4-0.2-2.9-0.6-4.5-1.3c-1.6-0.7-3-1.7-4.2-3
			c-1.2-1.3-2.1-2.6-2.7-4.1c-0.6-1.5-1-3-1.2-4.7c-0.2-1.6-0.3-3.4-0.3-5.1v-27.1h9.5v25c0,1.1,0,2,0,2.8c0,0.8,0.1,1.8,0.2,3.2
			c0.1,1.4,0.6,2.6,1.3,3.7c0.6,1.1,1.7,1.9,3.2,2.5c1.5,0.5,3.4,0.8,5.7,0.8H602.9z"/>
		<path class="st0" d="M642.4,101.4v7.9h-15.7c-3.4,0-6.1,0.9-7.9,2.7c-1.9,1.8-2.8,4.4-2.8,7.9h26.5v7.9h-26.5c0,3.8,0.7,6.5,2.1,8
			c1.4,1.5,2.7,2.4,3.9,2.7c1.2,0.3,2.8,0.4,4.8,0.4h15.7v7.9h-16.1c-3,0-5.6-0.3-7.8-0.8c-2.1-0.5-4.3-1.6-6.4-3.2
			c-2.6-2.2-4.4-4.8-5.5-7.9c-1.1-3.1-1.6-6.4-1.6-10l0.1-2.7c0-1.6,0.2-3.3,0.5-4.8c0.3-1.6,0.8-3,1.3-4.4c0.5-1.4,1.1-2.6,1.8-3.7
			c0.7-1.1,1.7-2.2,3-3.5c1.3-1.3,2.9-2.3,4.7-2.9s3.6-1,5.2-1.2c1.6-0.2,3.3-0.3,4.9-0.3H642.4z"/>
		<path class="st0" d="M654.8,146.9h-10.1l19.1-45.5h10.1l19.4,45.5h-10.6l-4.2-10.9h-19.8L654.8,146.9z M661.8,128h13.6l-6.9-17.4
			L661.8,128z"/>
		<path class="st0" d="M706.3,146.9h-9.8v-45.5h12.2l18.5,32.8l-0.4-32.8h9.6v45.5h-11L706,112.5L706.3,146.9z"/>
		<path class="st0" d="M745.7,101.4h10v45.5h-10V101.4z"/>
		<path class="st0" d="M775.1,146.9h-9.8v-45.5h12.2l18.5,32.8l-0.4-32.8h9.6v45.5h-11l-19.5-34.4L775.1,146.9z"/>
		<path class="st0" d="M843.6,138.6V128h-12.7v-8h22.5v27h-20.4h-0.7c-1,0-2,0-3,0c-0.8-0.1-1.5-0.2-2-0.3c-0.6-0.1-1.2-0.2-1.9-0.4
			c-0.7-0.2-1.7-0.5-3-1c-1.3-0.5-2.9-1.5-4.8-3.2c-1.9-1.6-3.4-4-4.5-7.1c-1.1-3.1-1.6-6.4-1.6-10v-2.7c0-2.2,0.3-4.3,0.8-6.2
			c0.5-1.9,1.2-3.6,2-5.3s1.8-3,3-4.2c1.2-1.2,2.9-2.4,5.1-3.5c2.3-1.1,5.7-1.7,10.5-1.7h20.5v7.9h-20.5c-2.8,0-5,0.6-6.5,1.9
			c-1.6,1.3-2.7,3-3.3,5.2c-0.6,2.2-0.9,4.6-0.9,7.3v0.7c0,4.4,0.7,7.9,2.2,10.4c1.5,2.5,4.3,3.7,8.5,3.7H843.6z"/>
	</g>
</g>
<g id="Layer_2">
	<g>
		<linearGradient id="SVGID_1_" gradientUnits="userSpaceOnUse" x1="71.0689" y1="-8.5445" x2="-8.7203" y2="138.0952">
			<stop  offset="0" style="stop-color:#64CBEE"/>
			<stop  offset="1" style="stop-color:#1D71B8"/>
		</linearGradient>
		<path class="st1" d="M78.7,67.5l-8.4-51.6L18.8,6.4C11.5,5,5,11.3,6,18.6l9.7,69.9l48.8-3.2C73.6,84.7,80.2,76.5,78.7,67.5z"/>
		<linearGradient id="SVGID_2_" gradientUnits="userSpaceOnUse" x1="113.0863" y1="14.3179" x2="33.297" y2="160.9576">
			<stop  offset="0" style="stop-color:#64CBEE"/>
			<stop  offset="1" style="stop-color:#1D71B8"/>
		</linearGradient>
		<path class="st2" d="M105.4,82.3c5.5-6.4,9.6-13.7,11-22c2.9-17-0.5-28.9-5.6-37.1l-30.3-5.6l7.8,48.4
			C89.7,74.9,96.8,81.4,105.4,82.3z"/>
		<linearGradient id="SVGID_3_" gradientUnits="userSpaceOnUse" x1="130.3737" y1="23.7243" x2="50.5845" y2="170.364">
			<stop  offset="0" style="stop-color:#64CBEE"/>
			<stop  offset="1" style="stop-color:#1D71B8"/>
		</linearGradient>
		<path class="st3" d="M126.2,35.6c0.5,1.5,1,3.1,1.5,4.7c0.1,0.5,0.3,1.1,0.4,1.6c0,0,0,0,0,0c0.1,0.3,0.2,0.6,0.2,0.9
			c1.4,5.9,2.4,12.7,2.7,20.7c0.2,6.1-0.1,12-0.8,17.6l16.2-1.1l-8.1-44.5c-0.8-4.5-4.3-8-8.8-8.8l-3.8-0.7
			C115.4,9.1,92.6,7.4,92.6,7.4S116.6,9.9,126.2,35.6z"/>
		<linearGradient id="SVGID_4_" gradientUnits="userSpaceOnUse" x1="178.3918" y1="49.8517" x2="98.6025" y2="196.4914">
			<stop  offset="0" style="stop-color:#64CBEE"/>
			<stop  offset="1" style="stop-color:#1D71B8"/>
		</linearGradient>
		<path class="st4" d="M156.6,135.3l-8.4-45.7l-19.5,1.3c-5.3,25.3-18.2,44.3-27.4,55.2l2.3,14l45.1-12.3
			C154.2,146.3,157.6,140.9,156.6,135.3z"/>
		<linearGradient id="SVGID_5_" gradientUnits="userSpaceOnUse" x1="117.4528" y1="16.6938" x2="37.6636" y2="163.3335">
			<stop  offset="0" style="stop-color:#64CBEE"/>
			<stop  offset="1" style="stop-color:#1D71B8"/>
		</linearGradient>
		<path class="st5" d="M79.4,146.3l-13.4-11.3c9.1-3.8,16.4-9.7,21.4-14.4l0,0c0.3-0.3,0.6-0.5,0.9-0.8c4-4,6.3-7,6.3-7
			s-0.3,0.3-0.8,0.7c-10.9,9.1-25.1,15.1-32.3,17.8l-17.2-14.4c8.5-2.6,23-7.6,36.8-15.5c-3.9-4.3-9.6-6.8-15.7-6.4L17,98.2l9.7,70
			c0.3,2,1.1,3.8,2.2,5.2l8.3-9.9l3.1,2.6l3.1,2.6l-7.4,8.9c1.4,0.2,3,0.2,4.5-0.3l36.5-9.9l-6.8-5.6l-17.3-1.9l-5.8,6.9l-4.3-3.6
			l-4.3-3.6l5.8-6.9l-5.1-16.7l-13.9-11.6l3.6-4.3l54.7,45.5l2.1-0.6l-58.1-48.4l2.3-2.8l60.1,50l4.3-1.2l-0.7-4.2l-10.6-9.2
			c2.3-2.2,5-4.8,7.8-7.9l0,0c2.5-2.7,5.3-6.1,8.2-10l0,0c6.3-8.6,12.5-19.2,16.7-31.9C115.6,99.4,102.1,130,79.4,146.3z"/>
	</g>
</g>
</svg>
